<svg width="118" height="26" viewBox="0 0 118 26" fill="none" xmlns="http://www.w3.org/2000/svg">
<path d="M15.86 11.56L16.06 11.66C17.4867 9.22 19.2333 8 21.3 8C22.9133 8 23.72 8.80667 23.72 10.42C23.72 11.1133 23.52 12.2867 23.12 13.94C22.7333 15.5933 22.54 16.84 22.54 17.68C22.54 18.52 22.68 19.1333 22.96 19.52C22.2533 20.1733 21.5067 20.5 20.72 20.5C19.1867 20.5 18.42 19.6733 18.42 18.02C18.42 17.4067 18.62 16.3667 19.02 14.9C19.42 13.4333 19.62 12.48 19.62 12.04C19.62 11.44 19.3933 11.14 18.94 11.14C18.5667 11.14 18.1467 11.3067 17.68 11.64C17.2267 11.96 16.7867 12.4 16.36 12.96C15.9467 13.5067 15.5933 14.2067 15.3 15.06C15.02 15.9 14.88 16.76 14.88 17.64C14.88 18.5067 15.02 19.1333 15.3 19.52C14.5933 20.1733 13.8467 20.5 13.06 20.5C11.5267 20.5 10.76 19.6733 10.76 18.02C10.76 17.4067 10.96 16.3667 11.36 14.9C11.76 13.4333 11.96 12.48 11.96 12.04C11.96 11.44 11.7333 11.14 11.28 11.14C10.9067 11.14 10.4867 11.3067 10.02 11.64C9.56667 11.96 9.12667 12.4 8.7 12.96C8.28667 13.5067 7.93333 14.2067 7.64 15.06C7.36 15.9 7.22 16.76 7.22 17.64C7.22 18.5067 7.36 19.1333 7.64 19.52C6.93333 20.1733 6.18667 20.5 5.4 20.5C3.86667 20.5 3.1 19.6733 3.1 18.02C3.1 17.4867 3.23333 16.4533 3.5 14.92C3.78 13.3867 4.06667 11.9867 4.36 10.72L3.32 9.12C4.64 8.37333 5.86 8 6.98 8C8.1 8 8.66 8.50667 8.66 9.52C8.66 10.1867 8.50667 10.8667 8.2 11.56L8.4 11.66C9.82667 9.22 11.5733 8 13.64 8C14.3867 8 14.9733 8.18667 15.4 8.56C15.84 8.93333 16.06 9.49333 16.06 10.24C16.06 10.64 15.9933 11.08 15.86 11.56ZM31.2372 20.5C29.4105 20.5 27.9972 20.0267 26.9972 19.08C26.0105 18.1333 25.5172 16.8533 25.5172 15.24C25.5172 13.0933 26.2505 11.3533 27.7172 10.02C29.1972 8.67333 31.0505 8 33.2772 8C34.5172 8 35.4572 8.28 36.0972 8.84C36.7372 9.38667 37.0572 10.1133 37.0572 11.02C37.0572 12.26 36.4505 13.2933 35.2372 14.12C34.0372 14.9333 32.1772 15.3467 29.6572 15.36C29.6972 16.2133 29.8905 16.8867 30.2372 17.38C30.5839 17.86 31.0172 18.1 31.5372 18.1C32.0572 18.1 32.5039 17.9267 32.8772 17.58C33.2639 17.2333 33.4572 16.6667 33.4572 15.88C35.4039 15.88 36.3772 16.34 36.3772 17.26C36.3772 18.0467 35.8972 18.7867 34.9372 19.48C33.9772 20.16 32.7439 20.5 31.2372 20.5ZM32.9372 10.34C32.2572 10.34 31.6305 10.68 31.0572 11.36C30.4972 12.04 30.0905 12.84 29.8372 13.76C31.1705 13.6533 32.1705 13.3533 32.8372 12.86C33.5172 12.3533 33.8572 11.82 33.8572 11.26C33.8572 10.9933 33.7705 10.7733 33.5972 10.6C33.4372 10.4267 33.2172 10.34 32.9372 10.34ZM51.6217 11.56L51.8217 11.66C53.2484 9.22 54.9951 8 57.0617 8C58.6751 8 59.4817 8.80667 59.4817 10.42C59.4817 11.1133 59.2817 12.2867 58.8817 13.94C58.4951 15.5933 58.3017 16.84 58.3017 17.68C58.3017 18.52 58.4417 19.1333 58.7217 19.52C58.0151 20.1733 57.2684 20.5 56.4817 20.5C54.9484 20.5 54.1817 19.6733 54.1817 18.02C54.1817 17.4067 54.3817 16.3667 54.7817 14.9C55.1817 13.4333 55.3817 12.48 55.3817 12.04C55.3817 11.44 55.1551 11.14 54.7017 11.14C54.3284 11.14 53.9084 11.3067 53.4417 11.64C52.9884 11.96 52.5484 12.4 52.1217 12.96C51.7084 13.5067 51.3551 14.2067 51.0617 15.06C50.7817 15.9 50.6417 16.76 50.6417 17.64C50.6417 18.5067 50.7817 19.1333 51.0617 19.52C50.3551 20.1733 49.6084 20.5 48.8217 20.5C47.2884 20.5 46.5217 19.6733 46.5217 18.02C46.5217 17.4067 46.7217 16.3667 47.1217 14.9C47.5217 13.4333 47.7217 12.48 47.7217 12.04C47.7217 11.44 47.4951 11.14 47.0417 11.14C46.6684 11.14 46.2484 11.3067 45.7817 11.64C45.3284 11.96 44.8884 12.4 44.4617 12.96C44.0484 13.5067 43.6951 14.2067 43.4017 15.06C43.1217 15.9 42.9817 16.76 42.9817 17.64C42.9817 18.5067 43.1217 19.1333 43.4017 19.52C42.6951 20.1733 41.9484 20.5 41.1617 20.5C39.6284 20.5 38.8617 19.6733 38.8617 18.02C38.8617 17.4867 38.9951 16.4533 39.2617 14.92C39.5417 13.3867 39.8284 11.9867 40.1217 10.72L39.0817 9.12C40.4017 8.37333 41.6217 8 42.7417 8C43.8617 8 44.4217 8.50667 44.4217 9.52C44.4217 10.1867 44.2684 10.8667 43.9617 11.56L44.1617 11.66C45.5884 9.22 47.3351 8 49.4017 8C50.1484 8 50.7351 8.18667 51.1617 8.56C51.6017 8.93333 51.8217 9.49333 51.8217 10.24C51.8217 10.64 51.7551 11.08 51.6217 11.56ZM66.9989 20.5C65.1722 20.5 63.7589 20.0267 62.7589 19.08C61.7722 18.1333 61.2789 16.8533 61.2789 15.24C61.2789 13.0933 62.0122 11.3533 63.4789 10.02C64.9589 8.67333 66.8122 8 69.0389 8C70.2789 8 71.2189 8.28 71.8589 8.84C72.4989 9.38667 72.8189 10.1133 72.8189 11.02C72.8189 12.26 72.2122 13.2933 70.9989 14.12C69.7989 14.9333 67.9389 15.3467 65.4189 15.36C65.4589 16.2133 65.6522 16.8867 65.9989 17.38C66.3456 17.86 66.7789 18.1 67.2989 18.1C67.8189 18.1 68.2656 17.9267 68.6389 17.58C69.0256 17.2333 69.2189 16.6667 69.2189 15.88C71.1656 15.88 72.1389 16.34 72.1389 17.26C72.1389 18.0467 71.6589 18.7867 70.6989 19.48C69.7389 20.16 68.5056 20.5 66.9989 20.5ZM68.6989 10.34C68.0189 10.34 67.3922 10.68 66.8189 11.36C66.2589 12.04 65.8522 12.84 65.5989 13.76C66.9322 13.6533 67.9322 13.3533 68.5989 12.86C69.2789 12.3533 69.6189 11.82 69.6189 11.26C69.6189 10.9933 69.5322 10.7733 69.3589 10.6C69.1989 10.4267 68.9789 10.34 68.6989 10.34ZM76.9234 20.5C76.1368 20.5 75.5568 20.2933 75.1834 19.88C74.8101 19.4667 74.6234 18.92 74.6234 18.24C74.6234 17.56 74.7568 16.4533 75.0234 14.92C75.3034 13.3867 75.5901 11.9867 75.8834 10.72L74.8434 9.12C76.1634 8.37333 77.3834 8 78.5034 8C79.6234 8 80.1834 8.50667 80.1834 9.52C80.1834 10.1867 80.0301 10.8667 79.7234 11.56L79.9234 11.66C81.3501 9.22 83.1634 8 85.3634 8C86.9768 8 87.7834 8.80667 87.7834 10.42C87.7834 11.1133 87.5834 12.2867 87.1834 13.94C86.7968 15.5933 86.6034 16.84 86.6034 17.68C86.6034 18.52 86.7434 19.1333 87.0234 19.52C86.3168 20.1733 85.5701 20.5 84.7834 20.5C83.2501 20.5 82.4834 19.6733 82.4834 18.02C82.4834 17.4067 82.6834 16.3667 83.0834 14.9C83.4834 13.4333 83.6834 12.48 83.6834 12.04C83.6834 11.44 83.4568 11.14 83.0034 11.14C82.6301 11.14 82.2034 11.3067 81.7234 11.64C81.2434 11.96 80.7768 12.4 80.3234 12.96C79.8834 13.5067 79.5101 14.2067 79.2034 15.06C78.8968 15.9 78.7434 16.76 78.7434 17.64C78.7434 18.5067 78.8834 19.1333 79.1634 19.52C78.4568 20.1733 77.7101 20.5 76.9234 20.5ZM90.0197 12.78C89.9264 12.4067 89.8797 12.06 89.8797 11.74C89.8797 11.0867 90.073 10.5933 90.4597 10.26C90.8464 9.92667 91.3464 9.76 91.9597 9.76C91.9597 9.06667 91.7797 8.31333 91.4197 7.5C92.073 7.02 92.6664 6.66 93.1997 6.42C93.7464 6.16667 94.3197 6.04 94.9197 6.04C95.5197 6.04 95.933 6.15333 96.1597 6.38C96.3997 6.59333 96.5197 6.92667 96.5197 7.38C96.5197 7.83333 96.4264 8.54 96.2397 9.5C96.773 9.42 97.313 9.30667 97.8597 9.16C97.953 9.44 97.9997 9.8 97.9997 10.24C97.9997 10.68 97.8264 11.0933 97.4797 11.48C97.1464 11.8533 96.653 12.04 95.9997 12.04H95.6997C95.2197 14.2133 94.9797 15.8867 94.9797 17.06C94.9797 18.2333 95.1864 19.0533 95.5997 19.52C94.853 20.1733 94.0597 20.5 93.2197 20.5C92.3797 20.5 91.773 20.2533 91.3997 19.76C91.0397 19.2533 90.8597 18.4733 90.8597 17.42C90.8597 16.78 91.093 15.1 91.5597 12.38C91.0264 12.4733 90.513 12.6067 90.0197 12.78ZM108.951 9.52C109.698 9.52 110.338 9.82 110.871 10.42C111.418 11.02 111.691 11.8933 111.691 13.04C111.691 14.1733 111.491 15.2267 111.091 16.2C110.691 17.16 110.165 17.9467 109.511 18.56C108.858 19.1733 108.118 19.6533 107.291 20C106.465 20.3333 105.618 20.5 104.751 20.5C103.005 20.5 101.625 20.02 100.611 19.06C99.5981 18.1 99.0914 16.8267 99.0914 15.24C99.0914 13.0933 99.7781 11.3533 101.151 10.02C102.538 8.67333 104.298 8 106.431 8C106.911 8 107.391 8.05333 107.871 8.16C108.018 8.6 108.098 9.1 108.111 9.66C108.391 9.56667 108.671 9.52 108.951 9.52ZM106.491 12.3C106.491 11.9267 106.578 11.5067 106.751 11.04C106.938 10.5733 107.231 10.2 107.631 9.92C105.871 10.2933 104.658 11.0067 103.991 12.06C103.418 12.9667 103.131 13.9 103.131 14.86C103.131 15.82 103.325 16.5933 103.711 17.18C104.111 17.7533 104.618 18.04 105.231 18.04C106.591 18.04 107.551 17.1533 108.111 15.38C107.031 14.7133 106.491 13.6867 106.491 12.3Z" fill="#CD3C2A"/>
</svg>
